# xmcd CD database file
#
# Track frame offsets:
#	150
#	22811
#	47056
#
# Disc length: 988 seconds
#
# Revision: 0
# Processed by: cddbd v1.5.1PL0 Copyright (c) Steve Scherf et al.
# Submitted via: CDex 1.51
#
DISCID=1803da03
DTITLE=BooBooKlaxon'S!? - ＦＩＲＳＴ
DYEAR=2003
DGENRE=Pop
TTITLE0=TRAIN
TTITLE1=ANOTHER DAY
TTITLE2=すばらしき日々
EXTD=YEAR: 2003
EXTT0=
EXTT1=
EXTT2=
PLAYORDER=
